<?xml version="1.0" encoding="UTF-8" standalone="no"?>
<svg
   xmlns:dc="http://purl.org/dc/elements/1.1/"
   xmlns:cc="http://creativecommons.org/ns#"
   xmlns:rdf="http://www.w3.org/1999/02/22-rdf-syntax-ns#"
   xmlns:svg="http://www.w3.org/2000/svg"
   xmlns="http://www.w3.org/2000/svg"
   viewBox="0 0 513.77734 124.4444"
   height="124.4444"
   width="513.77734"
   xml:space="preserve"
   id="svg2"
   version="1.1"><metadata
     id="metadata8"><rdf:RDF><cc:Work
         rdf:about=""><dc:format>image/svg+xml</dc:format><dc:type
           rdf:resource="http://purl.org/dc/dcmitype/StillImage" /></cc:Work></rdf:RDF></metadata><defs
     id="defs6"><clipPath
       id="clipPath20"
       clipPathUnits="userSpaceOnUse"><path
         id="path18"
         d="M 0,0 H 385.333 V 93.3333 H 0 Z" /></clipPath><clipPath
       id="clipPath30"
       clipPathUnits="userSpaceOnUse"><path
         id="path28"
         d="M 0,93.333 H 385.333 V 0 H 0 Z" /></clipPath><clipPath
       id="clipPath36"
       clipPathUnits="userSpaceOnUse"><path
         id="path34"
         d="M 0,0 H 385.333 V 93.3333 H 0 Z" /></clipPath></defs><g
     transform="matrix(1.3333333,0,0,-1.3333333,0,124.4444)"
     id="g10"><g
       id="g12" /><g
       id="g14"><g
         clip-path="url(#clipPath20)"
         id="g16"><path
           id="path22"
           style="fill:#ffffff;fill-opacity:1;fill-rule:nonzero;stroke:none"
           d="m 189,0 h 16 v 54.667 h -16 z" /></g></g><g
       id="g24"><g
         clip-path="url(#clipPath30)"
         id="g26"><g
           clip-path="url(#clipPath36)"
           id="g32"><path
             id="path38"
             style="fill:#ffffff;fill-opacity:1;fill-rule:nonzero;stroke:none"
             d="m 103.3334,54.6667 v -38.667 h -1.667 -12.545 c -1.908,0 -3.455,1.547 -3.455,3.455 v 35.212 h -16 v -38.667 c 0,-8.836 7.164,-16 16,-16 h 17.667 16 v 54.667 z" /><path
             id="path40"
             style="fill:#ffffff;fill-opacity:1;fill-rule:nonzero;stroke:none"
             d="m 163,54.6667 h -17.667 -16 V -3e-4 h 16 v 38.667 H 147 159.543 v -0.008 c 1.908,0 3.455,-1.547 3.455,-3.455 H 163 V -3e-4 h 16 v 38.667 c 0,8.837 -7.163,16 -16,16" /><path
             id="path42"
             style="fill:#ffffff;fill-opacity:1;fill-rule:nonzero;stroke:none"
             d="M 284,54.6667 H 265.333 231 215 V -3e-4 h 16 v 38.667 h 18.333 V -3e-4 h 16 v 38.667 H 268 280.545 v -0.008 c 1.908,0 3.455,-1.546 3.455,-3.454 V -3e-4 h 16 v 38.667 c 0,8.837 -7.163,16 -16,16" /><path
             id="path44"
             style="fill:#ffffff;fill-opacity:1;fill-rule:nonzero;stroke:none"
             d="m 343.3333,16 h -1.333 -12.545 c -1.908,0 -3.455,1.547 -3.455,3.455 V 22.667 32 35.212 c 0,1.908 1.547,3.455 3.455,3.455 h 12.545 1.333 z m 3,38.667 h -3 -17.333 c -8.837,0 -16,-7.164 -16,-16 V 16 c 0,-8.837 7.163,-16 16,-16 h 17.333 3 13 v 54.667 z" /><path
             id="path46"
             style="fill:#fdc010;fill-opacity:1;fill-rule:nonzero;stroke:none"
             d="M 205,93.3333 H 189 16 c -8.837,0 -16,-7.163 -16,-16 V 3e-4 h 16 v 38.666 h 43.333 v 16 H 16 v 19.415 c 0.099,1.775 1.526,3.186 3.309,3.252 H 32 189 205 359.333 v 16 z" /><path
             id="path48"
             style="fill:#ffffff;fill-opacity:1;fill-rule:nonzero;stroke:none"
             d="m 385.333,0 h -16 v 93.333 h 16 z" /></g></g></g></g></svg>